<svg width="168" height="168" viewBox="0 0 168 168" fill="none" xmlns="http://www.w3.org/2000/svg">
<g clip-path="url(#clip0_465_79)">
<path d="M104.808 162C103.566 162.535 102.356 163.168 101.075 163.585C98.1036 164.551 95.1165 165.481 92.0998 166.291C90.2346 166.792 88.311 167.096 86.3995 167.399C84.4305 167.711 82.4496 167.974 80.4641 168.148C78.9068 168.285 77.3349 168.266 75.7691 168.29C74.4255 168.31 73.0777 168.356 71.7382 168.279C69.8433 168.171 67.9485 168.008 66.0642 167.78C64.1121 167.544 62.1585 167.275 60.2315 166.89C58.1372 166.471 56.0468 165.989 54.002 165.377C51.4792 164.622 48.941 163.853 46.5265 162.817C43.5954 161.559 40.7512 160.083 37.9366 158.575C35.9475 157.51 34.0163 156.314 32.1585 155.033C30.3741 153.802 28.6634 152.45 27.0184 151.037C24.958 149.266 22.9326 147.445 21.0148 145.523C19.5038 144.009 18.1043 142.367 16.7889 140.678C15.0384 138.43 13.3492 136.127 11.7586 133.763C9.83518 130.905 8.26993 127.84 6.81898 124.712C5.46558 121.794 4.29184 118.807 3.39106 115.73C2.58622 112.981 1.93878 110.179 1.36826 107.371C0.944635 105.285 0.758471 103.152 0.460915 101.041C-0.0452864 97.4493 0.0481465 93.8345 0.107936 90.2277C0.13795 88.4171 0.33688 86.5983 0.605205 84.805C1.03999 81.8992 1.51207 78.9938 2.12127 76.1206C2.78688 72.9814 3.73568 69.91 4.97598 66.9448C6.041 64.3986 7.07149 61.8273 8.32452 59.373C10.2551 55.5914 12.4611 51.9605 15.1154 48.6287C16.4856 46.9088 17.8953 45.2193 19.3211 43.545C20.2088 42.5027 21.1053 41.457 22.0953 40.5154C23.5782 39.1049 25.1504 37.7886 26.678 36.4248C29.1131 34.2506 31.7614 32.3594 34.5162 30.6236C36.3038 29.4973 38.1463 28.4532 40 27.4376C44.1245 25.178 48.4825 23.4577 52.9762 22.1054C55.2714 21.4146 57.6201 20.8851 59.9668 20.3875C61.7865 20.0016 63.6743 19.908 65.4689 19.4423C66.9406 19.0603 68.1737 19.3083 69.3497 20.1196C70.565 20.9581 71.2745 22.1078 71.2744 23.6317C71.2736 36.2104 71.2736 48.789 71.2743 61.3676C71.2744 63.4235 69.7129 65.2367 67.8373 65.7092C64.7679 66.4824 61.924 67.7648 59.2618 69.4256C57.9482 70.245 56.7798 71.3046 55.5799 72.2969C53.5793 73.9514 52.0081 75.9869 50.6146 78.1538C49.4684 79.9361 48.4416 81.7979 47.8513 83.848C47.2967 85.774 46.8176 87.7226 46.343 89.6704C46.222 90.1669 46.2347 90.6975 46.202 91.2135C46.152 92.0009 46.0257 92.797 46.0921 93.5757C46.2455 95.3744 46.4759 97.1675 46.7098 98.9583C47.1144 102.056 48.3363 104.873 49.8209 107.575C50.8462 109.442 52.1349 111.13 53.5501 112.736C55.0765 114.469 56.8324 115.91 58.7056 117.221C60.775 118.669 63.0285 119.799 65.4109 120.612C67.3177 121.263 69.2719 121.814 71.3094 121.925C72.9681 122.016 74.636 122.241 76.285 122.147C79.6451 121.955 82.9003 121.234 86.0084 119.86C88.2432 118.872 90.3895 117.735 92.2667 116.19C93.7466 114.973 95.1309 113.611 96.4012 112.175C97.5334 110.895 98.5674 109.494 99.4317 108.021C100.34 106.473 101.147 104.828 101.722 103.132C102.396 101.142 102.813 99.0594 103.265 97.0001C103.637 95.3025 105.639 93.5616 107.557 93.568C113.857 93.5889 120.157 93.575 126.554 93.6046C126.636 94.7 126.691 95.7721 126.59 96.8293C126.285 100.017 126.075 103.224 125.549 106.378C124.075 115.222 120.976 123.5 116.429 131.225C112.211 138.391 106.945 144.687 100.63 150.106C96.3916 153.743 91.8093 156.871 86.8714 159.472C80.3875 162.886 73.5485 165.307 66.3466 166.687C65.5212 166.845 64.6958 167.003 63.8704 167.162C67.6575 167.873 71.4599 168.119 75.2751 168.139C76.8234 168.147 78.3802 168.075 79.9196 167.911C82.8535 167.599 85.7972 167.308 88.7017 166.806C94.0533 165.88 99.2096 164.251 104.204 162.114C104.388 162.035 104.606 162.036 104.808 162Z" fill="#1FC3FF"/>
<path d="M96.9561 0.10408C97.2186 0.138708 97.4802 0.181423 97.7436 0.206655C99.5092 0.375845 101.283 0.486073 103.039 0.722427C105.084 0.99755 107.131 1.30303 109.145 1.73978C111.468 2.24339 113.777 2.83631 116.056 3.51201C120.641 4.87121 124.985 6.83052 129.195 9.07554C132.574 10.8773 135.783 12.9685 138.818 15.3016C140.554 16.6354 142.207 18.0823 143.832 19.5517C145.352 20.9267 146.847 22.3397 148.241 23.8412C150.483 26.2573 152.553 28.8172 154.469 31.5094C157.074 35.1693 159.336 39.0195 161.241 43.0809C163.061 46.9603 164.572 50.9593 165.64 55.1118C166.172 57.1854 166.624 59.2832 167.024 61.3868C167.384 63.2793 167.647 65.1914 167.907 67.1012C168.046 68.1249 168.107 69.1609 168.159 70.1937C168.178 70.5767 168.072 70.9661 167.945 71.4108C167.844 71.6192 167.821 71.7695 167.797 71.9199C167.797 71.9199 167.792 71.9065 167.765 71.9266C167.716 72.0221 167.693 72.0974 167.67 72.1727C167.67 72.1727 167.669 72.1574 167.636 72.1724C167.547 72.2493 167.48 72.3044 167.437 72.3742C166.386 74.0864 164.853 74.822 162.851 74.8136C155.714 74.7839 148.576 74.802 141.439 74.802C141.271 74.802 141.102 74.7924 140.935 74.8031C140.6 74.8247 140.438 74.7026 140.432 74.3395C140.422 73.7749 140.377 73.2104 140.333 72.6468C140.122 69.9137 139.994 67.1702 139.67 64.4503C139.178 60.3214 138.209 56.2844 136.957 52.3188C135.449 47.5414 133.46 42.9715 131.043 38.5828C127.866 32.8148 123.974 27.5712 119.389 22.8601C117.448 20.8655 115.364 18.9968 113.238 17.197C109.303 13.8651 105.018 11.0275 100.42 8.68948C98.1786 7.54937 95.8618 6.55673 93.5781 5.43873C93.5769 3.93363 93.5758 2.48714 93.5765 1.04065C93.577 0.210641 93.5786 0.223634 94.403 0.205425C95.2543 0.186622 96.1051 0.13906 96.9561 0.10408Z" fill="#FFEF5C"/>
<path d="M93.5788 5.49734C95.8617 6.55674 98.1786 7.54938 100.42 8.68948C105.018 11.0275 109.303 13.8651 113.238 17.197C115.364 18.9968 117.448 20.8655 119.389 22.8601C123.974 27.5712 127.866 32.8148 131.043 38.5828C133.46 42.9715 135.449 47.5414 136.957 52.3188C138.209 56.2844 139.178 60.3214 139.67 64.4503C139.994 67.1702 140.122 69.9137 140.333 72.6468C140.377 73.2104 140.422 73.7749 140.431 74.3395C140.437 74.7026 140.6 74.8247 140.935 74.8032C141.102 74.7924 141.271 74.802 141.439 74.802C148.576 74.802 155.714 74.7839 162.851 74.8136C164.853 74.822 166.386 74.0864 167.437 72.3742C167.48 72.3044 167.547 72.2493 167.643 72.1719C167.19 73.6126 166.115 74.4572 164.708 74.914C164.327 75.0379 163.897 75.0484 163.489 75.0486C151.058 75.0552 138.627 75.0637 126.196 75.0448C124.04 75.0415 122.294 73.3881 121.941 71.3364C121.454 68.5027 120.742 65.7492 119.515 63.1387C118.427 60.8232 117.071 58.6882 115.405 56.7399C113.728 54.7776 111.85 53.0358 109.719 51.5936C107.838 50.3207 105.836 49.245 103.687 48.4751C101.653 47.7462 99.5515 47.311 97.4252 46.925C95.3628 46.5506 93.9604 45.0711 93.5848 43.0634C93.4832 42.5202 93.4556 41.9563 93.4553 41.4019C93.4489 29.4748 93.4513 17.5477 93.4884 5.56124C93.5249 5.50181 93.5788 5.49734 93.5788 5.49734Z" fill="#FFF599"/>
<path d="M104.802 161.997C104.606 162.036 104.388 162.035 104.204 162.114C99.2096 164.251 94.0534 165.88 88.7018 166.806C85.7972 167.308 82.8536 167.599 79.9197 167.911C78.3803 168.075 76.8234 168.147 75.2751 168.139C71.46 168.119 67.6575 167.873 63.8705 167.162C64.6959 167.003 65.5212 166.845 66.3466 166.687C73.5486 165.307 80.3875 162.886 86.8715 159.472C91.8094 156.871 96.3917 153.743 100.63 150.106C106.945 144.687 112.211 138.391 116.429 131.225C120.976 123.5 124.075 115.222 125.549 106.378C126.075 103.224 126.286 100.017 126.59 96.8293C126.691 95.7721 126.636 94.7 126.612 93.598C126.765 93.5242 126.958 93.4549 127.151 93.4547C133.069 93.449 138.988 93.4163 144.905 93.4659C147.425 93.487 149.452 95.2792 149.373 97.9655C149.318 99.8022 149.093 101.636 148.888 103.466C148.319 108.549 147.082 113.483 145.353 118.285C144.505 120.641 143.498 122.943 142.501 125.242C140.814 129.133 138.635 132.753 136.193 136.21C135.011 137.882 133.731 139.49 132.432 141.074C131.239 142.529 129.961 143.913 128.643 145.366C128.541 145.478 128.514 145.551 128.488 145.625C128.488 145.625 128.478 145.616 128.439 145.61C127.884 146.157 127.366 146.71 126.849 147.263C126.849 147.263 126.844 147.256 126.813 147.242C126.757 147.231 126.732 147.235 126.678 147.256C126.63 147.313 126.609 147.352 126.589 147.391C126.589 147.391 126.587 147.379 126.563 147.393C126.512 147.442 126.487 147.479 126.462 147.515C126.462 147.515 126.462 147.504 126.437 147.518C126.386 147.568 126.361 147.604 126.336 147.641C126.336 147.641 126.336 147.63 126.31 147.643C126.26 147.694 126.235 147.73 126.21 147.767C126.21 147.767 126.21 147.756 126.184 147.769C126.134 147.819 126.109 147.856 126.084 147.893C126.084 147.893 126.084 147.882 126.058 147.895C126.007 147.945 125.983 147.982 125.959 148.019C125.959 148.019 125.959 148.009 125.932 148.021C125.881 148.07 125.857 148.107 125.833 148.145C125.833 148.145 125.833 148.135 125.805 148.146C125.754 148.195 125.731 148.233 125.707 148.271C125.707 148.271 125.707 148.261 125.679 148.272C125.628 148.321 125.605 148.359 125.581 148.397C125.581 148.397 125.581 148.387 125.553 148.398C125.502 148.446 125.479 148.485 125.456 148.523C125.456 148.523 125.456 148.514 125.427 148.523C125.375 148.571 125.353 148.61 125.33 148.649C125.33 148.649 125.33 148.64 125.301 148.649C125.249 148.697 125.227 148.736 125.204 148.775C125.204 148.775 125.204 148.766 125.175 148.775C125.123 148.824 125.101 148.862 125.078 148.901C125.078 148.901 125.085 148.893 125.043 148.886C124.902 148.973 124.802 149.066 124.702 149.16C124.702 149.16 124.693 149.146 124.682 149.161C124.638 149.191 124.612 149.214 124.591 149.243C124.324 149.494 124.057 149.745 123.72 150.026C123.621 150.091 123.592 150.126 123.563 150.161C123.563 150.161 123.564 150.149 123.538 150.162C123.487 150.213 123.463 150.25 123.438 150.287C123.438 150.287 123.438 150.276 123.411 150.288C123.36 150.337 123.337 150.375 123.313 150.413C123.313 150.413 123.312 150.402 123.282 150.418C123.229 150.48 123.206 150.526 123.183 150.573C123.19 150.605 123.179 150.63 123.083 150.644C122.946 150.691 122.876 150.741 122.806 150.791C122.806 150.791 122.807 150.779 122.782 150.793C122.732 150.843 122.707 150.88 122.682 150.917C122.682 150.917 122.682 150.906 122.655 150.918C122.604 150.967 122.581 151.005 122.557 151.043C122.557 151.043 122.556 151.032 122.526 151.049C122.474 151.111 122.451 151.157 122.428 151.203C122.435 151.235 122.424 151.26 122.327 151.274C122.19 151.321 122.12 151.371 122.05 151.421C122.05 151.421 122.051 151.409 122.026 151.422C121.975 151.473 121.951 151.51 121.926 151.547C121.926 151.547 121.926 151.536 121.896 151.553C121.844 151.615 121.821 151.661 121.797 151.707C121.805 151.74 121.794 151.764 121.697 151.78C121.56 151.827 121.49 151.876 121.42 151.925C121.42 151.925 121.421 151.913 121.396 151.926C121.345 151.977 121.321 152.014 121.296 152.051C121.296 152.051 121.297 152.04 121.269 152.051C121.218 152.1 121.194 152.139 121.171 152.177C121.171 152.177 121.173 152.168 121.134 152.164C120.994 152.25 120.894 152.34 120.793 152.43C120.793 152.43 120.792 152.419 120.766 152.431C120.715 152.48 120.691 152.518 120.667 152.555C120.667 152.555 120.667 152.545 120.638 152.555C120.587 152.604 120.564 152.642 120.542 152.681C120.542 152.681 120.543 152.672 120.504 152.667C120.364 152.753 120.264 152.843 120.163 152.934C120.163 152.934 120.163 152.923 120.135 152.934C120.084 152.982 120.061 153.02 120.037 153.059C120.037 153.059 120.039 153.05 120 153.046C119.86 153.131 119.76 153.222 119.659 153.312C119.659 153.312 119.658 153.301 119.631 153.312C119.58 153.361 119.557 153.399 119.533 153.437C119.533 153.437 119.535 153.428 119.496 153.424C119.356 153.51 119.256 153.6 119.155 153.69C119.155 153.69 119.155 153.679 119.127 153.69C119.076 153.738 119.053 153.777 119.029 153.815C119.029 153.815 119.031 153.806 118.988 153.801C118.845 153.897 118.746 154 118.646 154.102C118.654 154.134 118.643 154.159 118.547 154.173C118.41 154.22 118.34 154.269 118.271 154.319C118.271 154.319 118.272 154.307 118.245 154.319C118.194 154.369 118.171 154.407 118.147 154.445C118.147 154.445 118.149 154.436 118.11 154.432C117.97 154.518 117.87 154.608 117.77 154.698C117.77 154.698 117.771 154.689 117.732 154.686C117.592 154.771 117.492 154.861 117.391 154.95C117.391 154.95 117.393 154.941 117.354 154.939C117.215 155.025 117.114 155.113 117.013 155.202C117.013 155.202 117.012 155.191 116.985 155.202C116.934 155.251 116.911 155.289 116.887 155.327C116.887 155.327 116.889 155.318 116.848 155.312C116.708 155.398 116.611 155.491 116.513 155.584C116.513 155.584 116.51 155.576 116.468 155.566C116.204 155.734 115.98 155.911 115.757 156.088C115.757 156.088 115.754 156.08 115.718 156.072C115.621 156.113 115.56 156.161 115.499 156.209C115.499 156.209 115.502 156.2 115.464 156.199C115.325 156.286 115.224 156.374 115.123 156.462C115.123 156.462 115.125 156.453 115.086 156.45C114.947 156.536 114.846 156.625 114.746 156.714C114.746 156.714 114.747 156.705 114.706 156.7C114.567 156.786 114.469 156.877 114.371 156.969C114.371 156.969 114.368 156.96 114.332 156.953C114.235 156.995 114.174 157.043 114.113 157.091C114.113 157.091 114.117 157.082 114.078 157.08C113.939 157.166 113.838 157.255 113.738 157.344C113.738 157.344 113.739 157.335 113.698 157.329C113.474 157.455 113.291 157.589 113.107 157.722C113.107 157.722 113.109 157.713 113.068 157.707C112.876 157.826 112.726 157.951 112.577 158.077C112.577 158.077 112.552 158.096 112.487 158.084C112.18 158.242 111.937 158.412 111.694 158.581C111.694 158.581 111.67 158.6 111.61 158.592C111.48 158.633 111.411 158.681 111.341 158.729C111.341 158.729 111.345 158.72 111.303 158.715C110.994 158.884 110.728 159.059 110.462 159.234C110.462 159.234 110.463 159.225 110.426 159.22C110.329 159.263 110.268 159.311 110.208 159.359C110.208 159.359 110.211 159.35 110.167 159.344C110.043 159.357 109.955 159.361 109.882 159.396C108.286 160.169 106.691 160.942 105.1 161.725C104.98 161.784 104.893 161.91 104.791 162.006C104.791 162.006 104.797 161.994 104.802 161.997Z" fill="#0096CC"/>
</g>
<defs>
<clipPath id="clip0_465_79">
<rect width="168" height="168" fill="white"/>
</clipPath>
</defs>
</svg>
